<svg version="1.1" id="Layer_1" xmlns="http://www.w3.org/2000/svg" xmlns:xlink="http://www.w3.org/1999/xlink" x="0px" y="0px" width="100%" viewBox="0 210 1280 450" enable-background="new 0 0 1280 853" xml:space="preserve">

<path fill="#113355" opacity="1.000000" stroke="none" d="
M398.712891,407.926666 
	C398.796722,406.558563 398.880554,405.190430 399.223602,403.198364 
	C401.592590,396.443512 396.260284,395.489990 392.924652,393.147400 
	C387.734680,387.944702 382.544678,382.742035 377.015564,376.976868 
	C375.769592,375.230774 374.987396,373.920990 373.936981,372.882507 
	C359.731506,358.837708 345.521973,344.796661 331.236206,330.833649 
	C326.587982,326.290466 325.259430,326.357697 320.545959,331.021698 
	C300.192200,351.161865 279.996613,371.464203 259.455719,391.411255 
	C254.609512,396.117401 250.833572,400.424652 253.162048,407.700836 
	C253.792480,409.670898 253.311035,412.002228 253.311096,414.167755 
	C253.312256,455.649200 253.309860,497.130676 253.303696,538.612122 
	C253.303482,540.111023 253.262924,541.609985 253.231216,543.108765 
	C253.161713,546.395020 251.378296,547.766663 248.194885,548.032532 
	C240.133957,548.705750 237.168137,546.151794 237.157654,537.987305 
	C237.110367,501.170502 237.116547,464.353607 237.092728,427.536774 
	C237.086060,417.234070 237.069260,417.234039 227.060532,415.978760 
	C221.340118,415.261292 219.315338,410.837006 222.402023,405.854797 
	C223.359756,404.308868 224.231247,402.709503 225.142242,401.134613 
	C225.142242,401.134613 225.013214,401.010986 225.398895,400.977295 
	C228.212433,398.320404 230.640289,395.697266 233.068146,393.074127 
	C233.068161,393.074127 233.007172,393.007324 233.360107,392.921265 
	C236.065796,390.994507 238.626999,389.364777 240.737656,387.279083 
	C254.946152,373.238434 269.053162,359.095123 283.204803,344.996857 
	C294.179535,334.063507 305.133301,323.108704 316.169281,312.237427 
	C323.136871,305.373871 327.685028,305.318481 335.187866,311.768829 
	C336.321808,312.743683 337.379395,313.809967 338.443420,314.863159 
	C353.108704,329.378998 367.701752,343.968628 382.448914,358.400787 
	C397.919067,373.540619 413.629395,388.436707 428.970154,403.705170 
	C430.883148,405.609161 432.633881,409.721008 431.820435,411.753418 
	C430.980560,413.851868 427.020264,415.548523 424.246979,415.866333 
	C416.089996,416.801239 415.955078,416.595917 415.950348,424.746307 
	C415.929352,460.894012 415.918518,497.041748 415.886139,533.189453 
	C415.883453,536.186096 416.206177,539.294006 415.515045,542.140808 
	C415.037628,544.107361 413.449036,546.568359 411.708893,547.332520 
	C403.979767,550.726440 399.455292,547.705933 399.050720,539.399414 
	C398.994171,538.238525 398.808472,537.084045 398.682556,535.926575 
	C398.694885,496.956299 398.707214,457.986023 398.783936,418.097168 
	C398.803192,414.094604 398.758026,411.010620 398.712891,407.926666 
z" data-index="1" style="opacity: 1;"></path>
<path fill="#113253" opacity="1.000000" stroke="none" d="
M344.658844,548.600342 
	C343.739807,547.581238 343.271088,546.514526 342.499084,545.756592 
	C341.105194,544.388000 339.589844,542.279724 338.015381,542.177795 
	C336.061432,542.051331 333.243042,543.087219 332.112030,544.602112 
	C327.784760,550.398132 321.458313,550.509216 317.215363,544.421387 
	C314.854401,541.033813 309.344574,541.167847 307.945007,545.032654 
	C306.218414,549.800476 302.501770,548.436035 299.236359,548.825867 
	C296.155273,549.193726 294.519409,548.062561 293.351501,544.938843 
	C291.873749,540.986328 286.445068,540.973145 284.186584,544.576660 
	C282.069000,547.955322 273.896179,550.443909 270.882721,548.371460 
	C270.057159,547.803650 269.641479,546.119690 269.641754,544.947998 
	C269.647827,520.299194 269.719971,495.650269 269.833923,471.001617 
	C269.856506,466.118927 272.093201,463.462952 275.893341,463.431396 
	C280.528229,463.392914 282.882477,465.852356 283.434814,470.880707 
	C283.679352,473.107269 283.819855,475.897522 285.179199,477.279358 
	C286.322449,478.441498 289.330902,478.508514 291.193634,477.964569 
	C292.447296,477.598450 293.864990,475.370026 293.959625,473.894592 
	C294.299896,468.589447 294.007599,463.247437 294.152496,457.924774 
	C294.263153,453.859436 295.880646,450.668701 300.451935,450.361115 
	C304.334808,450.099823 306.558472,452.995972 306.728149,458.322083 
	C306.881805,463.144836 306.960541,467.974182 306.895874,472.798248 
	C306.851166,476.132202 307.793518,478.232727 311.590424,478.360626 
	C315.457703,478.490936 317.599701,477.097260 317.668091,472.987305 
	C317.770538,466.829620 317.941620,460.671326 318.211639,454.518921 
	C318.353149,451.294678 319.596405,448.667755 323.072144,447.774384 
	C326.965302,446.773743 330.849884,449.170868 331.324371,453.519409 
	C331.990295,459.622375 332.128021,465.788727 332.340759,471.933167 
	C332.459778,475.370270 332.809509,478.395691 337.295135,478.407532 
	C341.658447,478.419037 342.434387,475.592224 342.435822,472.059113 
	C342.437744,467.396454 342.315155,462.722717 342.589813,458.074066 
	C342.892212,452.956055 345.280487,450.605988 349.511749,450.653961 
	C353.603119,450.700348 356.305420,453.369873 356.522034,458.136444 
	C356.763763,463.455383 356.644867,468.790833 356.678284,474.119080 
	C356.694336,476.678436 357.173950,478.878143 360.443939,478.775909 
	C363.250732,478.688141 365.851654,478.309814 366.191284,474.675323 
	C366.392242,472.524536 366.430573,470.282715 367.101257,468.268005 
	C368.366241,464.468048 371.469635,462.680145 375.274048,463.199280 
	C378.632263,463.657562 380.160004,466.083221 380.153656,469.664703 
	C380.110718,493.807220 380.194946,517.949951 380.184692,542.092590 
	C380.183533,544.814941 380.838684,548.641663 376.697144,548.496826 
	C373.010040,548.367920 367.799805,551.821777 365.860229,545.084900 
	C365.528137,543.931335 363.491852,542.639099 362.174164,542.560364 
	C360.582092,542.465393 357.593597,543.429443 357.494507,544.221069 
	C356.759399,550.095154 352.581055,548.799683 348.963165,548.792114 
	C347.632843,548.789368 346.302673,548.727112 344.658844,548.600342 
M355.714264,493.405273 
	C355.523987,499.508942 355.148529,505.614075 355.197174,511.715851 
	C355.243042,517.471863 355.735291,523.224304 356.319122,529.635132 
	C359.023651,530.259583 361.758514,531.369995 364.413727,531.204224 
	C365.183136,531.156250 366.227600,527.463684 366.283356,525.418335 
	C366.531006,516.334351 366.567108,507.240417 366.441101,498.153381 
	C366.409607,495.883881 365.871277,491.910522 364.905518,491.696198 
	C362.346100,491.128204 359.425476,492.187775 356.334473,492.747101 
	C356.334473,492.747101 356.039856,492.933899 355.714264,493.405273 
M313.732056,531.817078 
	C317.072815,532.047241 318.810333,530.362244 318.832855,527.140503 
	C318.907410,516.485901 318.901703,505.830322 318.856079,495.175446 
	C318.837433,490.819305 315.864502,490.172668 312.354523,490.207031 
	C308.762573,490.242188 306.092865,491.192780 306.104828,495.488159 
	C306.134094,505.977692 305.951508,516.472961 306.301208,526.951050 
	C306.355530,528.578796 308.763641,530.127991 310.796173,531.756042 
	C311.509766,531.745850 312.223328,531.735657 313.732056,531.817078 
M343.688477,513.496155 
	C343.523132,507.515594 343.376038,501.534424 343.186493,495.554626 
	C343.042511,491.012360 340.132263,490.283600 336.337006,490.435242 
	C332.590485,490.584930 330.953125,492.329346 330.975525,496.045044 
	C331.035614,506.026672 331.020660,516.009094 330.970215,525.990845 
	C330.950562,529.879211 332.688141,531.818665 336.646454,531.934448 
	C340.565582,532.049133 343.210754,530.700317 343.426697,526.463257 
	C343.629761,522.478516 343.606873,518.482178 343.688477,513.496155 
M283.015594,508.502380 
	C283.044373,514.649292 283.043671,520.796448 283.112946,526.942932 
	C283.154297,530.606812 285.450806,531.762024 288.710785,531.775208 
	C291.762238,531.787476 294.064972,530.734009 294.091461,527.318726 
	C294.173981,516.688477 294.156403,506.056946 294.107697,495.426270 
	C294.092072,492.018311 291.952057,490.926514 288.844330,490.871307 
	C285.539948,490.812592 283.268890,491.875488 283.169281,495.544769 
	C283.061096,499.529602 283.062622,503.517395 283.015594,508.502380 
z" data-index="2" style="opacity: 1; visibility: visible;"></path>
<path fill="#113355" opacity="1.000000" stroke="none" d="
M577.980835,475.088837 
	C577.737793,472.959656 577.286621,470.830780 577.283142,468.701202 
	C577.237000,440.554108 577.249146,412.406921 577.258057,384.259735 
	C577.260376,376.985992 577.668091,376.992859 584.820374,376.403168 
	C591.637024,375.841095 595.731018,378.399597 599.492615,384.141602 
	C610.156067,400.419006 621.512817,416.242676 632.638000,432.216156 
	C633.436768,433.363007 634.570740,434.276367 636.562256,436.357178 
	C637.010681,433.039734 637.507385,431.049164 637.512573,429.057373 
	C637.550964,414.235870 637.458740,399.414093 637.477478,384.592468 
	C637.486511,377.432281 638.407104,376.579132 645.564331,376.480713 
	C658.254700,376.306274 658.266296,376.306274 658.270996,388.859406 
	C658.279846,412.680725 658.276855,436.502014 658.269836,460.323334 
	C658.269104,462.988312 658.267761,465.655487 658.165161,468.317719 
	C658.003296,472.515259 657.360291,476.343964 651.461304,475.785461 
	C652.184204,476.044067 652.907166,476.302643 653.235535,476.420105 
	C651.465881,476.420105 649.296448,476.324158 647.138489,476.440735 
	C643.053711,476.661438 640.388062,474.861938 638.087891,471.473083 
	C625.004150,452.196625 611.734436,433.046295 597.947693,413.607727 
	C596.580811,415.319061 595.135986,417.267609 595.111572,419.233795 
	C594.911560,435.350708 595.003113,451.470978 594.947327,467.590057 
	C594.923767,474.394135 594.387512,474.848602 587.449890,474.930237 
	C584.293335,474.967377 581.137207,475.035004 577.980835,475.088837 
z" data-index="3" style="opacity: 1;"></path>
<path fill="#113254" opacity="1.000000" stroke="none" d="
M834.398071,443.773163 
	C830.166138,463.793457 813.572510,476.285553 795.018921,477.123016 
	C775.461548,478.005829 760.834656,471.277313 751.448181,454.200287 
	C746.986267,446.082458 746.116272,437.099579 745.793823,427.716766 
	C745.352051,414.864655 748.987061,403.789917 755.736511,393.360443 
	C770.166748,371.062469 806.396179,367.770599 823.806030,387.387421 
	C827.151978,391.157501 829.329285,396.039154 831.668945,400.601288 
	C833.174988,403.537720 831.840454,405.893433 828.651794,406.698395 
	C825.266174,407.553070 821.800415,408.501953 818.357300,408.551666 
	C816.518799,408.578156 813.661621,407.256165 812.963074,405.753143 
	C808.585449,396.334412 801.208008,391.662262 791.142517,392.154480 
	C780.401123,392.679810 772.175354,399.813049 769.244385,410.467529 
	C766.320984,421.094543 766.196045,431.931244 768.959290,442.594391 
	C772.001160,454.333008 782.125305,460.836700 795.599976,460.304321 
	C804.072693,459.969574 812.491760,451.921082 814.472717,442.262146 
	C815.517090,437.169525 814.540649,435.801666 809.446045,435.599304 
	C805.618835,435.447266 801.783936,435.465637 797.952332,435.457397 
	C795.045715,435.451172 793.660217,434.046448 793.744629,431.146393 
	C793.768860,430.314636 793.713867,429.480804 793.706848,428.647827 
	C793.642944,421.066406 793.908691,420.742371 801.464172,420.707245 
	C810.627808,420.664612 819.792419,420.662598 828.955505,420.754333 
	C835.795288,420.822815 837.205566,422.323029 836.473328,428.646088 
	C835.903503,433.566406 835.148926,438.465393 834.398071,443.773163 
z" data-index="4" style="visibility: visible; opacity: 1;"></path>
<path fill="#113355" opacity="1.000000" stroke="none" d="
M551.817749,459.888489 
	C541.084717,472.822021 527.290039,477.420410 511.245453,477.009064 
	C499.935394,476.719116 489.879150,473.395325 481.765381,465.462891 
	C467.673706,451.686035 463.522247,434.680420 466.614349,415.635986 
	C470.364655,392.537964 491.167206,374.720001 514.491455,374.447449 
	C540.589600,374.142517 563.040833,398.436249 562.146301,424.584198 
	C561.707764,437.401917 559.790283,449.191864 551.817749,459.888489 
M489.835052,444.512360 
	C494.958252,454.718994 502.980255,460.897034 514.615784,460.796204 
	C526.176147,460.696106 534.018616,454.094574 538.435547,443.964874 
	C544.723694,429.543793 543.543335,415.070740 534.393555,402.378571 
	C523.112183,386.729706 501.281158,388.682831 491.657074,405.395569 
	C484.464233,417.886414 484.649353,430.702545 489.835052,444.512360 
z" data-index="5" style="opacity: 1; visibility: visible;"></path>
<path fill="#113254" opacity="1.000000" stroke="none" d="
M866.938477,458.992249 
	C866.107849,461.077911 865.564941,462.830872 864.866211,464.519409 
	C858.551880,479.778839 861.234436,476.253418 845.806396,476.421173 
	C841.666016,476.466187 840.531982,474.382202 841.908691,470.481628 
	C852.368896,440.844513 862.891113,411.229156 873.262817,381.561157 
	C874.577820,377.799713 876.782715,376.200500 880.653625,376.381439 
	C883.643066,376.521179 886.643860,376.419037 889.639587,376.424530 
	C897.014160,376.438049 897.773376,376.941803 900.161560,383.722656 
	C910.379028,412.733582 920.613770,441.738525 930.713745,470.790344 
	C931.313782,472.516357 930.791443,474.632507 930.791443,476.412170 
	C926.463135,476.412170 922.139648,476.404938 917.816223,476.414368 
	C913.994202,476.422729 911.810242,474.597015 910.493958,470.936157 
	C904.396057,453.977081 908.255371,456.545654 889.930176,456.246124 
	C884.606140,456.159088 879.263855,456.044708 873.960144,456.397217 
	C871.652161,456.550629 869.420288,457.850464 866.938477,458.992249 
M899.760193,436.718719 
	C896.152161,425.851868 892.581665,414.972198 888.879089,404.137634 
	C888.500061,403.028412 887.329956,402.189545 886.526917,401.225220 
	C885.733765,401.933594 884.512207,402.495636 884.212708,403.372620 
	C880.512634,414.208435 876.895081,425.073425 873.381287,435.971191 
	C872.432739,438.912994 873.550903,440.948669 876.876648,441.063385 
	C883.015381,441.275146 889.157837,441.411102 895.299866,441.480377 
	C897.890137,441.509613 899.925537,440.656036 899.760193,436.718719 
z" data-index="6" style="opacity: 1; visibility: visible;"></path>
<path fill="#113355" opacity="1.000000" stroke="none" d="
M728.935852,435.079315 
	C719.777222,435.228760 710.618164,435.352783 701.460205,435.536469 
	C695.182190,435.662354 694.476807,436.250214 694.222534,442.342865 
	C694.056091,446.330078 694.379578,450.335663 694.293274,454.328888 
	C694.194580,458.894531 696.598328,460.532013 700.814392,460.529480 
	C708.980469,460.524567 717.146606,460.617371 725.312683,460.660004 
	C731.820435,460.693970 733.020386,461.634430 733.160278,466.854156 
	C733.338623,473.509918 732.116577,474.879456 725.782532,475.144348 
	C725.138794,475.171295 724.497498,475.257507 723.812012,475.892334 
	C725.976196,475.892334 728.140381,475.892334 730.304565,475.892334 
	C730.305481,476.080048 730.306396,476.267761 730.307251,476.455475 
	C721.721985,476.455475 713.136658,476.460754 704.551331,476.454010 
	C695.719055,476.447083 686.886536,476.386139 678.054626,476.434418 
	C674.173279,476.455627 674.436157,473.674957 674.431213,471.216125 
	C674.400818,456.051666 674.469421,440.886963 674.456665,425.722412 
	C674.444580,411.392090 674.561462,397.057404 674.222778,382.734039 
	C674.108154,377.886566 675.641663,376.305603 680.439941,376.375885 
	C695.602844,376.597992 710.771118,376.438812 725.937195,376.473877 
	C731.938843,376.487762 732.941284,377.490753 733.177795,383.353455 
	C733.224792,384.518524 733.230957,385.686920 733.207092,386.852814 
	C733.087830,392.674774 732.263000,393.569824 726.535034,393.614319 
	C718.869202,393.673859 711.202087,393.575989 703.536255,393.632599 
	C695.022339,393.695435 694.259216,394.513763 694.213745,403.216675 
	C694.198914,406.049591 694.344177,408.886261 694.244202,411.715149 
	C694.081055,416.333191 696.266541,418.433228 700.828979,418.472107 
	C709.160156,418.543030 717.490967,418.703796 725.820435,418.889038 
	C727.621338,418.929077 729.416382,419.231049 732.528870,419.544983 
	C731.487305,424.787872 730.522888,429.642273 729.138733,434.553009 
	C728.223572,434.585327 727.728210,434.561279 727.232849,434.537262 
	C727.232117,434.717957 727.231384,434.898621 727.230652,435.079315 
	C727.799072,435.079315 728.367432,435.079315 728.935852,435.079315 
M716.971436,435.305237 
	C717.195068,434.907013 717.418640,434.508789 717.642212,434.110565 
	C712.995117,434.110565 708.348022,434.110565 703.700867,434.110565 
	C703.698669,434.524170 703.696411,434.937775 703.694153,435.351379 
	C707.897095,435.351379 712.100098,435.351379 716.971436,435.305237 
M694.021973,476.166870 
	C694.154114,476.083252 694.325134,476.026337 694.406555,475.907898 
	C694.475159,475.808075 694.439819,475.636810 694.450500,475.497192 
	C693.448608,475.433990 692.446655,475.370789 691.444763,475.307587 
	C691.427856,475.545776 691.410950,475.783966 691.394043,476.022186 
	C692.132446,476.097900 692.870850,476.173615 694.021973,476.166870 
z" data-index="7" style="opacity: 1;"></path>
<path fill="#113355" opacity="1.000000" stroke="none" d="
M1035.414062,434.020630 
	C1035.192261,434.461090 1035.284546,435.262177 1035.386230,435.263367 
	C1042.048218,435.340912 1048.711182,435.355133 1055.373901,435.371643 
	C1057.372437,435.376617 1059.370972,435.372406 1061.369751,435.556244 
	C1053.188354,435.556244 1045.006470,435.495972 1036.825928,435.576050 
	C1030.698242,435.635986 1029.839600,436.495178 1029.619995,442.449860 
	C1029.497314,445.777649 1029.463623,449.112946 1029.525757,452.442352 
	C1029.653931,459.312653 1030.784546,460.433594 1037.850220,460.527283 
	C1045.678223,460.631073 1053.514526,460.817169 1061.334717,460.571472 
	C1066.237671,460.417480 1067.808594,462.540710 1067.653687,467.119415 
	C1067.409790,474.329285 1067.024414,475.061005 1061.315063,475.078522 
	C1046.515015,475.123993 1031.714600,475.093781 1016.896851,475.977844 
	C1033.113037,475.977844 1049.329224,475.977844 1065.545410,475.977844 
	C1065.544189,476.127655 1065.542969,476.277466 1065.541748,476.427277 
	C1048.556641,476.427277 1031.571289,476.372589 1014.586853,476.475128 
	C1011.333740,476.494751 1010.253784,475.383667 1010.272949,472.090912 
	C1010.443909,442.775330 1010.457031,413.458923 1010.544373,384.142822 
	C1010.566101,376.866577 1010.926636,376.496460 1018.155945,376.476196 
	C1032.314819,376.436462 1046.474243,376.422058 1060.633057,376.479675 
	C1067.029297,376.505707 1067.861572,377.747711 1067.911499,386.534180 
	C1067.942993,392.072906 1066.599365,393.448639 1060.741821,393.511230 
	C1052.746826,393.596649 1044.749878,393.507477 1036.755371,393.614899 
	C1030.620117,393.697296 1029.601562,394.798126 1029.525391,401.049622 
	C1029.484741,404.380157 1029.514648,407.714081 1029.617310,411.043243 
	C1029.803955,417.094055 1030.818237,418.277832 1037.047485,418.511230 
	C1044.533203,418.791718 1052.041016,418.960632 1059.522827,418.702026 
	C1064.241211,418.538971 1066.141357,420.021545 1066.046875,424.919800 
	C1065.876221,433.767120 1065.865112,434.000793 1057.221313,433.998322 
	C1050.058350,433.996307 1042.895386,434.004364 1035.414062,434.020630 
z" data-index="8" style="visibility: visible; opacity: 1;"></path>
<path fill="#113254" opacity="1.000000" stroke="none" d="
M966.000183,376.491577 
	C973.822510,376.460236 981.150085,376.587250 988.465088,376.340363 
	C993.214844,376.180054 995.159546,378.421112 995.270996,382.841766 
	C995.312988,384.504700 995.346680,386.168030 995.362000,387.831390 
	C995.397766,391.706818 993.628052,393.729645 989.592834,393.569244 
	C987.266785,393.476746 984.934082,393.554504 982.604370,393.550140 
	C972.678711,393.531494 972.319519,393.828156 972.285339,403.971832 
	C972.234375,419.115265 972.288330,434.259064 972.289124,449.402710 
	C972.289429,455.393555 972.344849,461.385803 972.235352,467.374847 
	C972.096985,474.948059 970.564880,476.425934 963.109741,476.572876 
	C951.311707,476.805389 951.303650,476.805389 951.297180,464.951477 
	C951.285522,443.816528 951.315796,422.681519 951.262024,401.546692 
	C951.243713,394.346649 950.412903,393.612366 943.156799,393.559540 
	C939.329468,393.531677 935.497498,393.415253 931.675598,393.555298 
	C927.639893,393.703156 925.909729,391.614899 925.644592,387.899750 
	C925.538147,386.408295 925.528320,384.906067 925.551453,383.409943 
	C925.645752,377.304779 926.398621,376.542450 932.549500,376.523621 
	C943.532959,376.489990 954.516602,376.499756 966.000183,376.491577 
M972.531555,429.918030 
	C972.054871,429.859650 971.578186,429.801300 971.101501,429.742920 
	C971.101501,432.613647 971.101501,435.484375 971.101501,438.355133 
	C971.600281,438.354034 972.098999,438.352936 972.597778,438.351837 
	C972.597778,435.760559 972.597778,433.169250 972.531555,429.918030 
M972.564453,460.208221 
	C972.356201,459.566681 972.147949,458.925110 971.939697,458.283569 
	C971.591370,458.541412 971.243103,458.799255 970.894775,459.057098 
	C971.433716,459.598755 971.972717,460.140381 972.564453,460.208221 
M955.353210,475.648560 
	C955.145325,475.552643 954.940308,475.448273 954.724548,475.375610 
	C954.705750,475.369293 954.616760,475.571136 954.560364,475.676300 
	C954.785828,475.732422 955.011230,475.788544 955.353210,475.648560 
M971.879272,470.334106 
	C971.851501,470.079834 971.823669,469.825562 971.795837,469.571289 
	C971.664551,469.604584 971.533264,469.637878 971.401978,469.671204 
	C971.479858,469.917053 971.557678,470.162903 971.879272,470.334106 
z" data-index="9" style="visibility: visible; opacity: 1;"></path>
<path fill="#041122" opacity="1.000000" stroke="none" d="
M224.808289,401.231079 
	C224.231247,402.709503 223.359756,404.308868 222.402023,405.854797 
	C219.315338,410.837006 221.340118,415.261292 227.060532,415.978760 
	C237.069260,417.234039 237.086060,417.234070 237.092728,427.536774 
	C237.116547,464.353607 237.110367,501.170502 237.157654,537.987305 
	C237.168137,546.151794 240.133957,548.705750 248.194885,548.032532 
	C251.378296,547.766663 253.161713,546.395020 253.231216,543.108765 
	C253.262924,541.609985 253.303482,540.111023 253.303696,538.612122 
	C253.309860,497.130676 253.312256,455.649200 253.311096,414.167755 
	C253.311035,412.002228 253.792480,409.670898 253.162048,407.700836 
	C250.833572,400.424652 254.609512,396.117401 259.455719,391.411255 
	C279.996613,371.464203 300.192200,351.161865 320.545959,331.021698 
	C325.259430,326.357697 326.587982,326.290466 331.236206,330.833649 
	C345.521973,344.796661 359.731506,358.837708 373.936981,372.882507 
	C374.987396,373.920990 375.769592,375.230774 376.798798,376.726654 
	C374.252594,375.115356 371.310822,373.476471 368.960907,371.220978 
	C355.994080,358.774872 343.196350,346.152771 330.285736,333.647736 
	C325.975830,329.473236 324.796112,329.598206 320.439789,333.950836 
	C299.603210,354.769958 278.792603,375.615295 257.872681,396.350403 
	C255.488419,398.713593 254.929062,400.958282 255.213959,404.295807 
	C255.677124,409.721405 255.043732,415.231964 255.051422,420.706390 
	C255.108917,461.663910 255.178055,502.621460 255.350464,543.578552 
	C255.366638,547.422058 253.938248,549.353149 250.184555,550.184204 
	C239.836731,552.475281 235.034119,548.774719 235.023392,538.067200 
	C234.985901,500.604034 235.007935,463.140778 234.973312,425.677582 
	C234.967087,418.952698 234.253632,418.089600 228.155365,417.988861 
	C223.684708,417.915009 219.728989,417.381653 218.570816,412.112183 
	C217.406525,406.814880 219.976517,403.537720 224.808289,401.231079 
z" data-index="10"></path>
<path fill="#041122" opacity="1.000000" stroke="none" d="
M398.479675,536.222961 
	C398.808472,537.084045 398.994171,538.238525 399.050720,539.399414 
	C399.455292,547.705933 403.979767,550.726440 411.708893,547.332520 
	C413.449036,546.568359 415.037628,544.107361 415.515045,542.140808 
	C416.206177,539.294006 415.883453,536.186096 415.886139,533.189453 
	C415.918518,497.041748 415.929352,460.894012 415.950348,424.746307 
	C415.955078,416.595917 416.089996,416.801239 424.246979,415.866333 
	C427.020264,415.548523 430.980560,413.851868 431.820435,411.753418 
	C432.633881,409.721008 430.883148,405.609161 428.970154,403.705170 
	C413.629395,388.436707 397.919067,373.540619 382.448914,358.400787 
	C367.701752,343.968628 353.108704,329.378998 338.443420,314.863159 
	C337.379395,313.809967 336.321808,312.743683 335.187866,311.768829 
	C327.685028,305.318481 323.136871,305.373871 316.169281,312.237427 
	C305.133301,323.108704 294.179535,334.063507 283.204803,344.996857 
	C269.053162,359.095123 254.946152,373.238434 240.737656,387.279083 
	C238.626999,389.364777 236.065796,390.994507 233.393555,392.951660 
	C234.073242,391.555817 234.844772,389.813751 236.105179,388.565125 
	C262.848083,362.072266 289.609711,335.597992 316.460144,309.214172 
	C322.695435,303.087250 329.535767,303.276459 335.816803,309.417480 
	C353.089966,326.305542 370.270294,343.288788 387.586487,360.132507 
	C402.027496,374.179474 416.579010,388.113434 431.150757,402.024963 
	C434.411804,405.138275 435.401489,408.679657 434.114471,412.899078 
	C432.780518,417.272461 429.252441,417.809906 425.364502,417.940033 
	C418.724762,418.162262 418.094299,418.846588 418.087311,425.712463 
	C418.049103,463.377045 418.075775,501.041718 418.009155,538.706177 
	C417.993774,547.416199 414.542114,550.713318 405.823975,550.815735 
	C398.948151,550.896484 396.891876,548.827820 397.202484,541.833740 
	C397.281708,540.049866 397.903992,538.290161 398.479675,536.222961 
z" data-index="11" style="opacity: 1;"></path>
<path fill="#113253" opacity="1.000000" stroke="none" d="
M350.741486,419.208160 
	C350.744171,422.985901 350.744171,426.305450 350.744171,430.166626 
	C344.302185,430.166626 338.205048,430.172577 332.107910,430.158081 
	C331.446442,430.156494 330.638031,430.260406 330.146759,429.937073 
	C325.210083,426.687988 328.524841,421.767303 327.823364,417.655304 
	C327.419800,415.289764 327.956573,412.739105 331.207611,412.661133 
	C336.360474,412.537476 341.522125,412.481506 346.672363,412.643341 
	C350.627197,412.767609 350.845612,415.733887 350.741486,419.208160 
z" data-index="12"></path>
<path fill="#113253" opacity="1.000000" stroke="none" d="
M300.703369,392.249146 
	C300.283752,386.951416 302.257843,384.544586 307.339996,385.254089 
	C307.990814,385.344971 308.664856,385.270538 309.328125,385.271149 
	C321.461090,385.282349 323.537445,387.797302 320.946350,399.964386 
	C320.667084,401.275726 318.864197,402.766571 317.463104,403.209381 
	C315.648376,403.782990 313.527283,403.413025 311.538239,403.405090 
	C300.223602,403.359894 300.667358,404.537750 300.703369,392.249146 
z" data-index="13"></path>
<path fill="#113355" opacity="1.000000" stroke="none" d="
M300.826599,424.928375 
	C300.852631,422.573914 300.878662,420.219421 301.125000,417.130127 
	C304.205383,415.475769 307.018616,413.976562 309.933960,413.741150 
	C320.241180,412.908783 320.659088,413.571594 320.094849,423.823364 
	C319.902191,427.323730 318.493439,429.095123 314.972046,429.078949 
	C310.313812,429.057617 305.655609,429.031036 300.997375,429.006714 
	C300.997375,429.006714 301.001221,428.998779 301.018616,428.592255 
	C300.966187,427.099945 300.896393,426.014160 300.826599,424.928375 
z" data-index="14" style="opacity: 1;"></path>
<path fill="#041122" opacity="1.000000" stroke="none" d="
M337.057373,384.879639 
	C351.481537,384.857300 351.346649,384.855896 351.203217,398.768158 
	C351.162628,402.707886 349.750824,404.052948 345.974670,404.009186 
	C341.840393,403.961182 337.702881,404.435059 333.563171,404.541534 
	C329.403015,404.648529 326.921356,402.836945 327.050659,398.339417 
	C327.088776,397.014648 327.021759,395.687164 327.028961,394.361084 
	C327.078918,385.168243 327.280121,384.970673 337.057373,384.879639 
M329.788666,396.353638 
	C329.831635,399.226349 330.482025,402.162537 333.893433,402.034271 
	C338.674988,401.854431 343.427643,400.880829 348.185638,400.197937 
	C348.361298,400.172699 348.477844,399.638763 348.597198,399.332275 
	C351.226501,392.578491 348.119476,387.767822 341.024567,387.613617 
	C339.864258,387.588379 338.702850,387.583862 337.542419,387.601471 
	C330.771362,387.704285 330.093079,388.393280 329.788666,396.353638 
z" data-index="15" style="opacity: 1;"></path>
<path fill="#041122" opacity="1.000000" stroke="none" d="
M578.249512,475.347778 
	C581.137207,475.035004 584.293335,474.967377 587.449890,474.930237 
	C594.387512,474.848602 594.923767,474.394135 594.947327,467.590057 
	C595.003113,451.470978 594.911560,435.350708 595.111572,419.233795 
	C595.135986,417.267609 596.580811,415.319061 597.670288,413.361053 
	C597.679016,416.650238 597.149780,419.939362 597.130554,423.231445 
	C597.039490,438.816986 597.120728,454.403473 597.069641,469.989349 
	C597.049805,476.035614 596.115173,477.098267 590.146240,476.963318 
	C586.261963,476.875458 582.393677,476.083344 578.249512,475.347778 
z" data-index="16"></path>
<path fill="#041122" opacity="1.000000" stroke="none" d="
M301.177124,429.311707 
	C305.655609,429.031036 310.313812,429.057617 314.972046,429.078949 
	C318.493439,429.095123 319.902191,427.323730 320.094849,423.823364 
	C320.659088,413.571594 320.241180,412.908783 309.933960,413.741150 
	C307.018616,413.976562 304.205383,415.475769 301.112427,416.688110 
	C299.608887,413.359833 301.180695,411.616394 304.723022,411.255524 
	C306.037567,411.121582 307.368042,411.118408 308.691803,411.104736 
	C321.953156,410.967773 324.379059,413.888550 321.725891,427.001129 
	C321.486633,428.183716 320.763000,429.572815 319.821533,430.254059 
	C316.441162,432.699982 304.922058,432.166840 301.177124,429.311707 
z" data-index="17"></path>
<path fill="#041122" opacity="1.000000" stroke="none" d="
M393.033142,393.467102 
	C396.260284,395.489990 401.592590,396.443512 399.254456,402.788177 
	C397.064636,399.930267 395.103119,396.858521 393.033142,393.467102 
z" data-index="18"></path>
<path fill="#041122" opacity="1.000000" stroke="none" d="
M232.744644,393.179810 
	C230.640289,395.697266 228.212433,398.320404 225.459335,401.042908 
	C227.563110,398.523376 229.992126,395.904449 232.744644,393.179810 
z" data-index="19"></path>
<path fill="#041122" opacity="1.000000" stroke="none" d="
M398.508362,408.209808 
	C398.758026,411.010620 398.803192,414.094604 398.760864,417.634827 
	C398.550201,414.891724 398.427032,411.692322 398.508362,408.209808 
z" data-index="20"></path>
<path fill="#041122" opacity="1.000000" stroke="none" d="
M300.654816,425.130402 
	C300.896393,426.014160 300.966187,427.099945 301.014954,428.593689 
	C300.823608,427.778595 300.653320,426.555511 300.654816,425.130402 
z" data-index="21"></path>

<path fill="#020508" opacity="1.000000" stroke="none" d="
M283.015961,508.003143 
	C283.062622,503.517395 283.061096,499.529602 283.169281,495.544769 
	C283.268890,491.875488 285.539948,490.812592 288.844330,490.871307 
	C291.952057,490.926514 294.092072,492.018311 294.107697,495.426270 
	C294.156403,506.056946 294.173981,516.688477 294.091461,527.318726 
	C294.064972,530.734009 291.762238,531.787476 288.710785,531.775208 
	C285.450806,531.762024 283.154297,530.606812 283.112946,526.942932 
	C283.043671,520.796448 283.044373,514.649292 283.015961,508.003143 
z" data-index="23" style="opacity: 1; visibility: hidden; fill: rgb(255, 255, 255);"></path>

<path fill="#010204" opacity="1.000000" stroke="none" d="
M312.936920,531.725525 
	C312.223328,531.735657 311.509766,531.745850 310.255737,531.424316 
	C309.136688,529.045837 308.100861,527.008484 308.058533,524.950684 
	C307.874207,515.991211 307.961029,507.025787 307.988678,498.062622 
	C307.998016,495.034149 308.531219,492.200897 312.416504,492.170135 
	C316.636688,492.136719 317.015930,495.212006 317.028137,498.386780 
	C317.059998,506.686188 316.940033,514.987976 317.109039,523.284180 
	C317.183899,526.958252 315.975800,529.725159 312.936920,531.725525 
z" data-index="25" style="opacity: 1; visibility: hidden; fill: rgb(255, 255, 255);"></path>
<path fill="#041122" opacity="1.000000" stroke="none" d="
M313.334473,531.771301 
	C315.975800,529.725159 317.183899,526.958252 317.109039,523.284180 
	C316.940033,514.987976 317.059998,506.686188 317.028137,498.386780 
	C317.015930,495.212006 316.636688,492.136719 312.416504,492.170135 
	C308.531219,492.200897 307.998016,495.034149 307.988678,498.062622 
	C307.961029,507.025787 307.874207,515.991211 308.058533,524.950684 
	C308.100861,527.008484 309.136688,529.045837 309.899292,531.403076 
	C308.763641,530.127991 306.355530,528.578796 306.301208,526.951050 
	C305.951508,516.472961 306.134094,505.977692 306.104828,495.488159 
	C306.092865,491.192780 308.762573,490.242188 312.354523,490.207031 
	C315.864502,490.172668 318.837433,490.819305 318.856079,495.175446 
	C318.901703,505.830322 318.907410,516.485901 318.832855,527.140503 
	C318.810333,530.362244 317.072815,532.047241 313.334473,531.771301 
z" data-index="26" style="opacity: 1;"></path>
<path fill="#020508" opacity="1.000000" stroke="none" d="
M356.020386,528.979858 
	C355.735291,523.224304 355.243042,517.471863 355.197174,511.715851 
	C355.148529,505.614075 355.523987,499.508942 355.829285,493.644165 
	C355.965332,505.575836 355.986328,517.268616 356.007355,528.961365 
	C356.007355,528.961365 356.009613,528.981506 356.020386,528.979858 
z" data-index="27" style="opacity: 1;"></path>
<path fill="#041122" opacity="1.000000" stroke="none" d="
M356.178040,528.587524 
	C355.986328,517.268616 355.965332,505.575836 355.992065,493.408508 
	C356.039856,492.933899 356.334473,492.747101 356.491516,492.673431 
	C356.548645,504.471039 356.448700,516.342346 356.178040,528.587524 
z" data-index="28"></path>

<path fill="#020508" opacity="1.000000" stroke="none" d="
M899.800049,437.112915 
	C899.925537,440.656036 897.890137,441.509613 895.299866,441.480377 
	C889.157837,441.411102 883.015381,441.275146 876.876648,441.063385 
	C873.550903,440.948669 872.432739,438.912994 873.381287,435.971191 
	C876.895081,425.073425 880.512634,414.208435 884.212708,403.372620 
	C884.512207,402.495636 885.733765,401.933594 886.526917,401.225220 
	C887.329956,402.189545 888.500061,403.028412 888.879089,404.137634 
	C892.581665,414.972198 896.152161,425.851868 899.800049,437.112915 
z" data-index="30" style="opacity: 1; visibility: hidden; fill: rgb(255, 255, 255);"></path>
<path fill="#000000" opacity="1.000000" stroke="none" d="
M716.637207,435.328308 
	C712.100098,435.351379 707.897095,435.351379 703.694153,435.351379 
	C703.696411,434.937775 703.698669,434.524170 703.700867,434.110565 
	C708.348022,434.110565 712.995117,434.110565 717.642212,434.110565 
	C717.418640,434.508789 717.195068,434.907013 716.637207,435.328308 
z" data-index="31"></path>
<path fill="#000000" opacity="1.000000" stroke="none" d="
M693.815613,476.208130 
	C692.870850,476.173615 692.132446,476.097900 691.394043,476.022186 
	C691.410950,475.783966 691.427856,475.545776 691.444763,475.307587 
	C692.446655,475.370789 693.448608,475.433990 694.450500,475.497192 
	C694.439819,475.636810 694.475159,475.808075 694.406555,475.907898 
	C694.325134,476.026337 694.154114,476.083252 693.815613,476.208130 
z" data-index="32"></path>
<path fill="#000000" opacity="1.000000" stroke="none" d="
M728.960449,435.044983 
	C728.367432,435.079315 727.799072,435.079315 727.230652,435.079315 
	C727.231384,434.898621 727.232117,434.717957 727.232849,434.537262 
	C727.728210,434.561279 728.223572,434.585327 728.876465,434.775513 
	C729.033997,434.941650 728.985107,435.010620 728.960449,435.044983 
z" data-index="33"></path>
<path fill="#000000" opacity="1.000000" stroke="none" d="
M972.564697,430.247986 
	C972.597778,433.169250 972.597778,435.760559 972.597778,438.351837 
	C972.098999,438.352936 971.600281,438.354034 971.101501,438.355133 
	C971.101501,435.484375 971.101501,432.613647 971.101501,429.742920 
	C971.578186,429.801300 972.054871,429.859650 972.564697,430.247986 
z" data-index="34"></path>
<path fill="#000000" opacity="1.000000" stroke="none" d="
M972.538086,460.445129 
	C971.972717,460.140381 971.433716,459.598755 970.894775,459.057098 
	C971.243103,458.799255 971.591370,458.541412 971.939697,458.283569 
	C972.147949,458.925110 972.356201,459.566681 972.538086,460.445129 
z" data-index="35"></path>
<path fill="#000000" opacity="1.000000" stroke="none" d="
M955.294922,475.746613 
	C955.011230,475.788544 954.785828,475.732422 954.560364,475.676300 
	C954.616760,475.571136 954.705750,475.369293 954.724548,475.375610 
	C954.940308,475.448273 955.145325,475.552643 955.294922,475.746613 
z" data-index="36"></path>
<path fill="#000000" opacity="1.000000" stroke="none" d="
M971.757385,470.371429 
	C971.557678,470.162903 971.479858,469.917053 971.401978,469.671204 
	C971.533264,469.637878 971.664551,469.604584 971.795837,469.571289 
	C971.823669,469.825562 971.851501,470.079834 971.757385,470.371429 
z" data-index="37"></path>
<path fill="#113355" opacity="1.000000" stroke="none" d="
M329.781860,395.902405 
	C330.093079,388.393280 330.771362,387.704285 337.542419,387.601471 
	C338.702850,387.583862 339.864258,387.588379 341.024567,387.613617 
	C348.119476,387.767822 351.226501,392.578491 348.597198,399.332275 
	C348.477844,399.638763 348.361298,400.172699 348.185638,400.197937 
	C343.427643,400.880829 338.674988,401.854431 333.893433,402.034271 
	C330.482025,402.162537 329.831635,399.226349 329.781860,395.902405 
z" data-index="38" style="opacity: 1;"></path>
</svg>